<?xml version="1.0" encoding="UTF-8"?>
<!DOCTYPE svg PUBLIC "-//W3C//DTD SVG 1.1//EN" "http://www.w3.org/Graphics/SVG/1.1/DTD/svg11.dtd">
<svg xmlns="http://www.w3.org/2000/svg" version="1.1" width="137px" height="137px" style="shape-rendering:geometricPrecision; text-rendering:geometricPrecision; image-rendering:optimizeQuality; fill-rule:evenodd; clip-rule:evenodd" xmlns:xlink="http://www.w3.org/1999/xlink">
<g><path style="opacity:0.306" fill="#ecd2d4" d="M 111.5,-0.5 C 113.5,-0.5 115.5,-0.5 117.5,-0.5C 117.5,0.166667 117.5,0.833333 117.5,1.5C 115.302,1.12487 113.302,0.458201 111.5,-0.5 Z"/></g>
<g><path style="opacity:1" fill="#c30209" d="M 23.5,-0.5 C 52.8333,-0.5 82.1667,-0.5 111.5,-0.5C 113.302,0.458201 115.302,1.12487 117.5,1.5C 117.833,1.5 118.167,1.5 118.5,1.5C 119.29,2.40128 120.29,3.06795 121.5,3.5C 121.833,3.5 122.167,3.5 122.5,3.5C 125.141,5.80437 127.808,8.13771 130.5,10.5C 130.427,12.0269 131.094,13.0269 132.5,13.5C 132.5,14.8333 132.5,16.1667 132.5,17.5C 131.022,16.0301 129.689,14.3634 128.5,12.5C 88.5896,13.8179 48.9229,14.3179 9.5,14C 7.5439,16.8103 4.87723,18.3103 1.5,18.5C 1.5,17.8333 1.5,17.1667 1.5,16.5C 6.55177,7.77032 13.8851,2.10365 23.5,-0.5 Z"/></g>
<g><path style="opacity:0.145" fill="#eed9d9" d="M 122.5,2.5 C 121.833,2.5 121.5,2.83333 121.5,3.5C 120.29,3.06795 119.29,2.40128 118.5,1.5C 118.435,1.06178 118.601,0.728446 119,0.5C 120.302,1.0848 121.469,1.75147 122.5,2.5 Z"/></g>
<g><path style="opacity:0.016" fill="#f5f0f1" d="M 126.5,1.5 C 127.833,2.16667 127.833,2.16667 126.5,1.5 Z"/></g>
<g><path style="opacity:0.004" fill="#f1e5e3" d="M 122.5,2.5 C 124.5,3.83333 126.5,5.16667 128.5,6.5C 129.058,7.78991 130.058,8.62325 131.5,9C 130.944,9.38258 130.611,9.88258 130.5,10.5C 127.808,8.13771 125.141,5.80437 122.5,3.5C 122.5,3.16667 122.5,2.83333 122.5,2.5 Z"/></g>
<g><path style="opacity:0.016" fill="#f4efee" d="M 4.5,6.5 C 3.83333,5.16667 3.83333,5.16667 4.5,6.5 Z"/></g>
<g><path style="opacity:0.004" fill="#f4f1ed" d="M 128.5,5.5 C 129.833,6.16667 129.833,6.16667 128.5,5.5 Z"/></g>
<g><path style="opacity:0.196" fill="#f1e5e4" d="M 17.5,-0.5 C 19.5,-0.5 21.5,-0.5 23.5,-0.5C 13.8851,2.10365 6.55177,7.77032 1.5,16.5C 1.38929,15.8826 1.05596,15.3826 0.5,15C 2.39448,13.2246 4.06115,11.2246 5.5,9C 4.74756,8.32924 4.41423,7.4959 4.5,6.5C 5.4959,6.41423 6.32924,6.74756 7,7.5C 9.85523,3.78928 13.3552,1.12261 17.5,-0.5 Z"/></g>
<g><path style="opacity:0.314" fill="#edcbcf" d="M 130.5,10.5 C 131.906,10.9731 132.573,11.9731 132.5,13.5C 131.094,13.0269 130.427,12.0269 130.5,10.5 Z"/></g>
<g><path style="opacity:1" fill="#cb050b" d="M 132.5,17.5 C 133.512,18.8717 134.512,20.205 135.5,21.5C 135.5,22.1667 135.833,22.5 136.5,22.5C 136.5,26.1667 136.5,29.8333 136.5,33.5C 130.439,33.7904 124.439,33.4571 118.5,32.5C 117.904,33.7161 117.737,35.0494 118,36.5C 116,37.1667 114.667,38.5 114,40.5C 113.617,39.944 113.117,39.6107 112.5,39.5C 118.166,33.0084 117.832,26.8417 111.5,21C 102.614,17.4428 96.9478,20.2761 94.5,29.5C 92.8235,30.1834 92.1568,31.5168 92.5,33.5C 86.8333,33.5 81.1667,33.5 75.5,33.5C 75.5,35.1667 75.5,36.8333 75.5,38.5C 65.3964,20.623 50.7297,15.4563 31.5,23C 20.2188,30.0625 15.2188,40.2291 16.5,53.5C 15.8343,50.9723 15.1676,48.3056 14.5,45.5C 10.0148,45.6414 5.34812,45.6414 0.5,45.5C 0.821411,39.9738 0.488077,34.6405 -0.5,29.5C -0.5,26.8333 -0.5,24.1667 -0.5,21.5C 0.166667,21.5 0.5,21.1667 0.5,20.5C 1.33825,20.1583 1.67158,19.4916 1.5,18.5C 4.87723,18.3103 7.5439,16.8103 9.5,14C 48.9229,14.3179 88.5896,13.8179 128.5,12.5C 129.689,14.3634 131.022,16.0301 132.5,17.5 Z"/></g>
<g><path style="opacity:0.914" fill="#e37f71" d="M 132.5,13.5 C 133.833,15.5 135.167,17.5 136.5,19.5C 136.5,20.1667 136.5,20.8333 136.5,21.5C 136.167,21.5 135.833,21.5 135.5,21.5C 134.512,20.205 133.512,18.8717 132.5,17.5C 132.5,16.1667 132.5,14.8333 132.5,13.5 Z"/></g>
<g><path style="opacity:0.373" fill="#eeb6b7" d="M 1.5,16.5 C 1.5,17.1667 1.5,17.8333 1.5,18.5C 1.67158,19.4916 1.33825,20.1583 0.5,20.5C 0.166667,20.5 -0.166667,20.5 -0.5,20.5C -0.5,20.1667 -0.5,19.8333 -0.5,19.5C 0.166667,18.5 0.833333,17.5 1.5,16.5 Z"/></g>
<g><path style="opacity:1" fill="#fdb840" d="M 112.5,39.5 C 102.401,43.452 96.4015,40.1187 94.5,29.5C 96.9478,20.2761 102.614,17.4428 111.5,21C 117.832,26.8417 118.166,33.0084 112.5,39.5 Z"/></g>
<g><path style="opacity:1" fill="#d70109" d="M 94.5,29.5 C 96.4015,40.1187 102.401,43.452 112.5,39.5C 113.117,39.6107 113.617,39.944 114,40.5C 114.667,38.5 116,37.1667 118,36.5C 117.737,35.0494 117.904,33.7161 118.5,32.5C 124.439,33.4571 130.439,33.7904 136.5,33.5C 136.5,49.1667 136.5,64.8333 136.5,80.5C 125.5,80.5 114.5,80.5 103.5,80.5C 113.987,79.5056 124.654,79.1722 135.5,79.5C 135.5,76.1667 135.5,72.8333 135.5,69.5C 113.758,69.8217 92.0913,69.4884 70.5,68.5C 76.3886,59.2947 78.0552,49.2947 75.5,38.5C 75.5,36.8333 75.5,35.1667 75.5,33.5C 81.1667,33.5 86.8333,33.5 92.5,33.5C 92.1568,31.5168 92.8235,30.1834 94.5,29.5 Z"/></g>
<g><path style="opacity:1" fill="#e3030c" d="M -0.5,29.5 C 0.488077,34.6405 0.821411,39.9738 0.5,45.5C 5.34812,45.6414 10.0148,45.6414 14.5,45.5C 15.1676,48.3056 15.8343,50.9723 16.5,53.5C 21.2163,73.6997 33.883,82.1997 54.5,79C 60.6842,76.7448 66.0175,73.2448 70.5,68.5C 92.0913,69.4884 113.758,69.8217 135.5,69.5C 135.5,72.8333 135.5,76.1667 135.5,79.5C 124.654,79.1722 113.987,79.5056 103.5,80.5C 100.312,80.6178 97.3117,81.4511 94.5,83C 89.1988,87.2998 84.1988,91.9664 79.5,97C 78.1667,97.6667 76.8333,98.3333 75.5,99C 67.5069,99.4997 59.5069,99.6664 51.5,99.5C 44.227,84.865 32.5603,79.365 16.5,83C 8.25335,85.7456 2.92002,91.2456 0.5,99.5C 0.166667,99.5 -0.166667,99.5 -0.5,99.5C -0.5,76.1667 -0.5,52.8333 -0.5,29.5 Z"/></g>
<g><path style="opacity:1" fill="#faf7f7" d="M 75.5,38.5 C 78.0552,49.2947 76.3886,59.2947 70.5,68.5C 66.0175,73.2448 60.6842,76.7448 54.5,79C 33.883,82.1997 21.2163,73.6997 16.5,53.5C 15.2188,40.2291 20.2188,30.0625 31.5,23C 50.7297,15.4563 65.3964,20.623 75.5,38.5 Z"/></g>
<g><path style="opacity:1" fill="#11aada" d="M 41.5,24.5 C 62.5149,24.3457 72.3482,34.679 71,55.5C 65.8993,69.9213 55.7326,76.088 40.5,74C 26.1129,68.9238 19.9462,58.7571 22,43.5C 25.1125,33.5525 31.6125,27.2192 41.5,24.5 Z"/></g>
<g><path style="opacity:1" fill="#f9fcfb" d="M 44.5,61.5 C 50.4877,61.664 51.821,64.164 48.5,69C 42.4034,69.1475 41.0701,66.6475 44.5,61.5 Z"/></g>
<g><path style="opacity:1" fill="#f6010b" d="M 51.5,99.5 C 34.5,99.5 17.5,99.5 0.5,99.5C 2.92002,91.2456 8.25335,85.7456 16.5,83C 32.5603,79.365 44.227,84.865 51.5,99.5 Z"/></g>
<g><path style="opacity:1" fill="#a30004" d="M 103.5,80.5 C 114.5,80.5 125.5,80.5 136.5,80.5C 136.5,84.8333 136.5,89.1667 136.5,93.5C 125.162,93.3335 113.828,93.5001 102.5,94C 97.1988,98.2998 92.1988,102.966 87.5,108C 84.5083,110.11 81.175,111.443 77.5,112C 51.5021,112.5 25.5021,112.667 -0.5,112.5C -0.5,108.167 -0.5,103.833 -0.5,99.5C -0.166667,99.5 0.166667,99.5 0.5,99.5C 17.5,99.5 34.5,99.5 51.5,99.5C 59.5069,99.6664 67.5069,99.4997 75.5,99C 76.8333,98.3333 78.1667,97.6667 79.5,97C 84.1988,91.9664 89.1988,87.2998 94.5,83C 97.3117,81.4511 100.312,80.6178 103.5,80.5 Z"/></g>
<g><path style="opacity:1" fill="#f6060d" d="M 136.5,93.5 C 136.5,99.1667 136.5,104.833 136.5,110.5C 135.388,112.599 134.721,114.933 134.5,117.5C 134.5,117.833 134.5,118.167 134.5,118.5C 132.917,120.663 131.584,122.996 130.5,125.5C 129.833,125.5 129.5,125.833 129.5,126.5C 127.142,128.529 124.808,130.529 122.5,132.5C 122.158,133.338 121.492,133.672 120.5,133.5C 116.677,134.336 113.011,135.336 109.5,136.5C 79.5,136.5 49.5,136.5 19.5,136.5C 17.5739,135.514 15.5739,134.514 13.5,133.5C 12.7095,132.599 11.7095,131.932 10.5,131.5C 9.83333,131.5 9.16667,131.5 8.5,131.5C 7.96882,129.456 6.80216,127.789 5,126.5C 3.33353,127.34 3.16686,126.84 4.5,125C 1.71968,123.087 0.0530108,120.587 -0.5,117.5C -0.5,115.833 -0.5,114.167 -0.5,112.5C 25.5021,112.667 51.5021,112.5 77.5,112C 81.175,111.443 84.5083,110.11 87.5,108C 92.1988,102.966 97.1988,98.2998 102.5,94C 113.828,93.5001 125.162,93.3335 136.5,93.5 Z"/></g>
<g><path style="opacity:0.016" fill="#f7cece" d="M 136.5,110.5 C 136.5,112.167 136.5,113.833 136.5,115.5C 135.833,116.167 135.167,116.833 134.5,117.5C 134.721,114.933 135.388,112.599 136.5,110.5 Z"/></g>
<g><path style="opacity:0.082" fill="#f2ebea" d="M 134.5,118.5 C 134.445,121.614 133.112,123.948 130.5,125.5C 131.584,122.996 132.917,120.663 134.5,118.5 Z"/></g>
<g><path style="opacity:0.004" fill="#f1f3ec" d="M 134.5,124.5 C 135.833,125.167 135.833,125.167 134.5,124.5 Z"/></g>
<g><path style="opacity:0.004" fill="#eef3f2" d="M 3.5,129.5 C 3.89657,128.475 4.56323,128.308 5.5,129C 4.90558,129.464 4.23891,129.631 3.5,129.5 Z"/></g>
<g><path style="opacity:0.024" fill="#f2f1ef" d="M 129.5,126.5 C 128.718,129.583 126.384,131.583 122.5,132.5C 124.808,130.529 127.142,128.529 129.5,126.5 Z"/></g>
<g><path style="opacity:0.008" fill="#f3f1f3" d="M 8.5,131.5 C 8.63101,132.239 8.46434,132.906 8,133.5C 7.30831,132.563 7.47498,131.897 8.5,131.5 Z"/></g>
<g><path style="opacity:0.008" fill="#f0f3f1" d="M 10.5,131.5 C 11.7095,131.932 12.7095,132.599 13.5,133.5C 13.5654,133.938 13.3988,134.272 13,134.5C 11.583,133.922 10.7496,132.922 10.5,131.5 Z"/></g>
<g><path style="opacity:0.031" fill="#f8cece" d="M 120.5,133.5 C 118.928,134.687 117.261,135.687 115.5,136.5C 113.5,136.5 111.5,136.5 109.5,136.5C 113.011,135.336 116.677,134.336 120.5,133.5 Z"/></g>
</svg>
